<svg aria-hidden="true" style="position: absolute; width: 0; height: 0; overflow: hidden;" version="1.1" xmlns="http://www.w3.org/2000/svg" xmlns:xlink="http://www.w3.org/1999/xlink">
<defs>
<symbol id="icon-brush" viewBox="0 0 32 32">
<title>brush</title>
<path d="M27.555 8.42c-1.355 1.647-5.070 6.195-8.021 9.81l-3.747-3.804c3.389-3.016 7.584-6.744 9.1-8.079 2.697-2.377 5.062-3.791 5.576-3.213 0.322 0.32-0.533 2.396-2.908 5.286zM18.879 19.030c-1.143 1.399-2.127 2.604-2.729 3.343l-4.436-4.323c0.719-0.64 1.916-1.705 3.304-2.939l3.861 3.919zM15.489 23.183v-0.012c-2.575 9.88-14.018 4.2-14.018 4.2s4.801 0.605 4.801-3.873c0-4.341 4.412-4.733 4.683-4.753l4.543 4.427c0 0.001-0.009 0.011-0.009 0.011z"></path>
</symbol>
<symbol id="icon-note-add" viewBox="0 0 32 32">
<title>note-add</title>
<path d="M25 25h-3v-1h3v-3h1v3h3v1h-3v3h-1v-3zM20.022 28h-13.021c-1.105 0-2.001-0.902-2.001-2.001v-14.999h23v7.498c-0.77-0.321-1.614-0.498-2.5-0.498-3.59 0-6.5 2.91-6.5 6.5 0 1.289 0.375 2.49 1.022 3.5v0 0zM5 10v-2.999c0-1.105 0.902-2.001 2.001-2.001h18.998c1.105 0 2.001 0.902 2.001 2.001v2.999h-23zM25.5 30c3.038 0 5.5-2.462 5.5-5.5s-2.462-5.5-5.5-5.5c-3.038 0-5.5 2.462-5.5 5.5s2.462 5.5 5.5 5.5v0z"></path>
</symbol>
<symbol id="icon-game-controller" viewBox="0 0 20 20">
<title>game-controller</title>
<path d="M19.444 9.361c-0.882-4.926-2.854-6.379-3.903-6.379-1.637 0-2.057 1.217-5.541 1.258-3.484-0.041-3.904-1.258-5.541-1.258-1.049 0-3.022 1.453-3.904 6.379-0.503 2.812-1.049 7.010 0.252 7.514 1.619 0.627 2.168-0.941 3.946-2.266 1.805-1.343 2.671-1.659 5.247-1.659s3.442 0.316 5.247 1.659c1.778 1.324 2.327 2.893 3.946 2.266 1.301-0.504 0.755-4.701 0.251-7.514zM6 10c-1.105 0-2-0.896-2-2s0.895-2 2-2 2 0.895 2 2c0 1.104-0.896 2-2 2zM13 10c-0.553 0-1-0.447-1-1s0.447-1 1-1c0.553 0 1 0.447 1 1s-0.447 1-1 1zM15 8c-0.553 0-1-0.447-1-1s0.447-1 1-1c0.553 0 1 0.447 1 1s-0.447 1-1 1z"></path>
</symbol>
<symbol id="icon-unity" viewBox="0 0 32 32">
<title>unity</title>
<path d="M26.533 25.6l-5.733-9.6 5.733-9.6 2.8 9.6zM13.867 24.667l-7.2-7.067h11.467l5.733 9.6zM13.867 7.2l10-2.533-5.733 9.6h-11.6c0 0.133 7.333-7.067 7.333-7.067zM28.533 0l-13.067 3.333-2 3.333h-3.867l-9.6 9.333 9.6 9.333h3.867l1.867 3.333 13.067 3.333 3.467-12.667-1.867-3.333 2-3.333z"></path>
</symbol>
<symbol id="icon-python" viewBox="0 0 32 32">
<title>python</title>
<path fill="#3776ab" style="fill: var(--color1, #3776ab)" d="M19.080 0.24l1.2 0.267 0.973 0.347 0.787 0.4 0.6 0.427 0.453 0.453 0.333 0.453 0.213 0.44 0.133 0.4 0.053 0.347 0.027 0.267-0.013 0.173v7.12l-0.067 0.84-0.173 0.733-0.28 0.613-0.347 0.507-0.4 0.413-0.44 0.333-0.467 0.253-0.467 0.187-0.44 0.133-0.4 0.093-0.347 0.053-0.28 0.027h-7.96l-0.92 0.067-0.787 0.187-0.667 0.293-0.547 0.36-0.44 0.427-0.36 0.467-0.267 0.48-0.2 0.493-0.133 0.467-0.093 0.427-0.053 0.36-0.027 0.28v4.080h-2.973l-0.28-0.040-0.373-0.093-0.427-0.16-0.467-0.24-0.48-0.347-0.48-0.48-0.467-0.613-0.427-0.787-0.373-0.973-0.28-1.173-0.187-1.4-0.067-1.64 0.080-1.627 0.213-1.387 0.32-1.16 0.427-0.947 0.48-0.76 0.533-0.587 0.56-0.44 0.56-0.32 0.533-0.213 0.48-0.133 0.427-0.067 0.32-0.013h0.213l0.080 0.013h10.88v-1.107h-7.787l-0.013-3.667-0.027-0.493 0.067-0.453 0.147-0.413 0.227-0.373 0.333-0.347 0.413-0.307 0.507-0.267 0.587-0.24 0.68-0.2 0.773-0.16 0.853-0.133 0.947-0.080 1.027-0.053 1.12-0.027 1.693 0.067zM10.68 2.88l-0.307 0.44-0.107 0.547 0.107 0.547 0.307 0.453 0.44 0.293 0.547 0.12 0.547-0.12 0.44-0.293 0.307-0.453 0.107-0.547-0.107-0.547-0.307-0.44-0.44-0.293-0.547-0.12-0.547 0.12zM28.133 8.147l0.373 0.080 0.427 0.16 0.467 0.24 0.48 0.36 0.48 0.467 0.467 0.627 0.427 0.787 0.373 0.973 0.28 1.173 0.187 1.387 0.067 1.64-0.080 1.64-0.213 1.387-0.32 1.147-0.427 0.947-0.48 0.76-0.533 0.6-0.56 0.44-0.56 0.32-0.533 0.213-0.48 0.12-0.427 0.067-0.32 0.027-0.213-0.013h-10.96v1.093h7.787l0.013 3.68 0.027 0.48-0.067 0.453-0.147 0.413-0.227 0.387-0.333 0.333-0.413 0.32-0.507 0.267-0.587 0.227-0.68 0.2-0.773 0.173-0.853 0.12-0.947 0.093-1.027 0.053-1.12 0.013-1.693-0.053-1.427-0.187-1.2-0.267-0.973-0.333-0.787-0.4-0.6-0.44-0.453-0.453-0.333-0.453-0.213-0.44-0.133-0.4-0.053-0.333-0.027-0.267 0.013-0.173v-7.12l0.067-0.853 0.173-0.72 0.28-0.613 0.347-0.507 0.4-0.427 0.44-0.32 0.467-0.267 0.467-0.187 0.44-0.133 0.4-0.080 0.347-0.053 0.28-0.027 0.173-0.013h7.787l0.92-0.067 0.787-0.187 0.667-0.28 0.547-0.373 0.44-0.427 0.36-0.467 0.267-0.48 0.2-0.48 0.133-0.467 0.093-0.427 0.053-0.373 0.027-0.28v-4.080h2.787l0.187 0.013zM19.507 27.147l-0.307 0.44-0.107 0.547 0.107 0.547 0.307 0.44 0.44 0.307 0.547 0.107 0.547-0.107 0.44-0.307 0.307-0.44 0.107-0.547-0.107-0.547-0.307-0.44-0.44-0.307-0.547-0.107-0.547 0.107z"></path>
</symbol>
<symbol id="icon-visualstudio" viewBox="0 0 32 32">
<title>visualstudio</title>
<path fill="#5c2d91" style="fill: var(--color2, #5c2d91)" d="M23.44 0.093c-0.008-0-0.018-0-0.028-0-0.52 0-0.994 0.199-1.35 0.524l0.002-0.001c-0 0-0 0-0.001 0s-0 0-0.001 0h0c-0.024 0.020-0.046 0.040-0.067 0.060l0-0-10.623 11.747-6.2-5.084-0.543-0.467c-0.229-0.191-0.527-0.308-0.852-0.308-0.185 0-0.361 0.038-0.521 0.106l0.009-0.003c-0.014 0.005-0.019 0.008-0.025 0.010l0.009-0.003-2.421 1c-0.043 0.018-0.077 0.033-0.11 0.050l0.007-0.003c-0.027 0.015-0.048 0.028-0.068 0.041l0.005-0.003c-0.024 0.013-0.040 0.023-0.056 0.033l0.006-0.003c-0.026 0.017-0.047 0.032-0.067 0.048l0.003-0.002c-0.017 0.013-0.031 0.023-0.044 0.034l0.002-0.002c-0.022 0.017-0.040 0.033-0.059 0.049l0.001-0.001c-0.018 0.015-0.033 0.030-0.048 0.044l0-0c-0.014 0.014-0.028 0.030-0.041 0.045l-0.001 0.002c-0.014 0.015-0.028 0.032-0.042 0.048l-0.002 0.002c-0.014 0.017-0.029 0.036-0.044 0.055l-0.002 0.003c-0.008 0.011-0.019 0.026-0.029 0.041l-0.003 0.005c-0.012 0.017-0.026 0.039-0.039 0.062l-0.003 0.006c-0.006 0.009-0.015 0.024-0.023 0.039l-0.003 0.007c-0.008 0.014-0.018 0.036-0.029 0.058l-0.003 0.008c-0.006 0.012-0.015 0.031-0.023 0.051l-0.003 0.009c-0.005 0.010-0.012 0.030-0.019 0.049l-0.003 0.009c-0.005 0.011-0.012 0.032-0.019 0.053l-0.003 0.009c-0.005 0.015-0.012 0.039-0.018 0.064l-0.002 0.009c-0.003 0.008-0.007 0.026-0.012 0.044l-0.002 0.009c-0.003 0.016-0.007 0.041-0.010 0.066l-0.001 0.007c-0.002 0.015-0.005 0.038-0.008 0.061l-0 0.005c-0.003 0.033-0.005 0.071-0.005 0.11v14.212c0.003 0.548 0.337 1.017 0.811 1.219l0.009 0.003 2.421 1.017c0.151 0.065 0.328 0.102 0.512 0.102 0.332 0 0.635-0.121 0.868-0.321l-0.002 0.002 0.544-0.467 6.2-5.084 10.624 11.747c0.030 0.029 0.061 0.057 0.093 0.084l0.003 0.002c0.023 0.021 0.048 0.043 0.073 0.064l0.003 0.003c0.020 0.015 0.045 0.034 0.071 0.052l0.007 0.004c0.021 0.016 0.049 0.035 0.077 0.054l0.007 0.005c0.020 0.013 0.048 0.029 0.077 0.045l0.010 0.005c0.019 0.012 0.047 0.027 0.076 0.043l0.011 0.005c0.018 0.009 0.048 0.023 0.078 0.036l0.013 0.005c0.018 0.009 0.049 0.023 0.080 0.035l0.013 0.005c0.018 0.008 0.050 0.019 0.083 0.029l0.014 0.004c0.015 0.006 0.044 0.015 0.074 0.023l0.014 0.003c0.021 0.007 0.057 0.016 0.093 0.024l0.013 0.003c0.017 0.004 0.047 0.011 0.078 0.017l0.012 0.002c0.022 0.004 0.057 0.009 0.091 0.013l0.009 0.001c0.025 0.003 0.059 0.007 0.094 0.009l0.006 0c0.028 0.002 0.061 0.003 0.096 0.004l0.002 0c0.015 0 0.033 0.001 0.051 0.001s0.036-0 0.054-0.001l-0.003 0c0.040-0.002 0.076-0.004 0.112-0.007l-0.008 0.001c0.038-0.003 0.069-0.006 0.099-0.010l-0.010 0.001c0.050-0.006 0.090-0.013 0.129-0.021l-0.013 0.002c0.040-0.007 0.067-0.012 0.093-0.019l-0.013 0.003c0.050-0.012 0.086-0.022 0.121-0.033l-0.014 0.004c0.045-0.012 0.075-0.021 0.105-0.031l-0.014 0.004c0.045-0.016 0.076-0.029 0.106-0.042l-0.013 0.005c0.053-0.020 0.093-0.037 0.131-0.054l-0.012 0.005 6.589-3.168c0.249-0.122 0.459-0.284 0.631-0.48l0.002-0.002c0.040-0.045 0.079-0.093 0.116-0.144l0.004-0.006c-0.003 0.006-0.002 0.003 0 0l0.005-0.010c0.034-0.047 0.069-0.101 0.102-0.157l0.005-0.010c0.025-0.042 0.052-0.094 0.078-0.148l0.005-0.012c-0.001 0.003 0.003-0.004 0.007-0.012l0.005-0.011c0.015-0.033 0.034-0.081 0.050-0.129l0.004-0.014c0.002-0.003 0.008-0.019 0.014-0.035l0.005-0.014c0.011-0.033 0.025-0.081 0.037-0.129l0.003-0.014c0.001-0.003 0.005-0.019 0.009-0.036l0.003-0.014c0.007-0.032 0.015-0.077 0.021-0.123l0.001-0.011c0.002-0.010 0.006-0.033 0.009-0.056l0.001-0.011c0.003-0.033 0.006-0.075 0.008-0.118l0-0.004c0.002-0.029 0.004-0.066 0.005-0.103l0-0.003v-21.481c0-0 0-0.001 0-0.001s0-0.001 0-0.001v0c0-0.006 0-0.014 0-0.021s-0-0.015-0-0.022v0.001c-0.001-0.072-0.006-0.141-0.014-0.21l0.001 0.010c-0.087-0.691-0.515-1.265-1.108-1.555l-0.012-0.005-6.587-3.167c-0.243-0.119-0.528-0.191-0.829-0.196l-0.002-0zM23.996 9.229v13.543l-8.26-6.771zM4.007 11.435l4.129 4.567-4.129 4.565z"></path>
</symbol>
<symbol id="icon-sublimetext" viewBox="0 0 32 32">
<title>sublimetext</title>
<path fill="#ff9800" style="fill: var(--color3, #ff9800)" d="M28.32 16.080c-0.012-0.394-0.26-0.727-0.607-0.864l-0.006-0.002-9.84-3.12 9.827-3.12c0.361-0.14 0.614-0.479 0.627-0.879l0-0.002v-7.587c0.003-0.021 0.005-0.045 0.005-0.070 0-0.258-0.209-0.467-0.467-0.467-0.059 0-0.116 0.011-0.169 0.031l0.003-0.001-23.387 7.44c-0.364 0.121-0.623 0.456-0.627 0.853v7.6c0.001 0.387 0.256 0.715 0.607 0.825l0.006 0.002 9.947 3.16-9.947 3.147c-0.355 0.144-0.603 0.482-0.613 0.879l-0 0.001v7.587c-0.002 0.017-0.004 0.037-0.004 0.057 0 0.25 0.203 0.453 0.453 0.453 0.059 0 0.115-0.011 0.167-0.032l-0.003 0.001 23.413-7.427c0.357-0.112 0.612-0.439 0.613-0.827v-0z"></path>
</symbol>
<symbol id="icon-edge" viewBox="0 0 32 32">
<title>edge</title>
<path d="M0.481 14.206c0.938-7.4 5.987-14.113 15.037-14.206 5.463 0.106 9.956 2.581 12.631 7.3 1.344 2.462 1.762 5.050 1.85 7.906v3.356h-20.081c0.094 8.281 12.188 8 17.394 4.35v6.744c-3.050 1.831-9.969 3.469-15.325 1.363-4.563-1.712-7.813-6.488-7.794-11.081-0.15-5.956 2.962-9.9 7.794-12.144-1.025 1.269-1.806 2.669-2.213 5.094h11.338c0 0 0.663-6.775-6.419-6.775-6.675 0.231-11.488 4.112-14.213 8.094v0z"></path>
</symbol>
<symbol id="icon-html-five" viewBox="0 0 32 32">
<title>html-five</title>
<path d="M1.892 0l2.567 28.801 11.524 3.199 11.554-3.204 2.572-28.796h-28.216zM24.52 9.42h-13.517l0.322 3.617h12.874l-0.97 10.844-7.245 2.008-7.237-2.008-0.495-5.547h3.547l0.252 2.82 3.933 1.060 0.009-0.002 3.935-1.062 0.408-4.58h-12.242l-0.953-10.681h17.694l-0.316 3.532z"></path>
</symbol>
</defs>
</svg>
