<svg aria-hidden="true" style="position: absolute; width: 0; height: 0; overflow: hidden;" version="1.1" xmlns="http://www.w3.org/2000/svg" xmlns:xlink="http://www.w3.org/1999/xlink">
<defs>
<symbol id="icon-star" viewBox="0 0 32 32">
<title>star</title>
<path d="M16 23l-9 6 4-10-9-6h10l4-10 4 10h10l-9 6 4 10z"></path>
</symbol>
<symbol id="icon-star1" viewBox="0 0 32 32">
<title>star1</title>
<path d="M16 23l9 6-4-10 9-6h-10l-4-10-4 10h-10l9 6-4 10 9-6zM16 21.753l-6.8 4.547 3.2-7.7-7.2-4.6h7.5l3.3-8.5 3.3 8.5h7.5l-7.2 4.6 3.2 7.7-6.8-4.547z"></path>
</symbol>
<symbol id="icon-gamepad" viewBox="0 0 33 32">
<title>gamepad</title>
<path d="M23.014 4.459c-1.416 0-4.166 2-6.5 2s-5.25-2-6.5-2c-8.583 0-13.5 23.082-7.083 23.082 5.417 0 6.146-6.75 13.562-6.75 6 0 9.521 6.668 13.521 6.668 6.416 0 1.584-23-7-23zM9.513 17.459c-2.485 0-4.5-2.016-4.5-4.5s2.015-4.5 4.5-4.5 4.5 2.015 4.5 4.5c0 2.484-2.014 4.5-4.5 4.5zM21.451 14.959c-0.553 0-1-0.447-1-1s0.447-1 1-1 1 0.447 1 1-0.447 1-1 1zM24.514 17.959c-0.553 0-1-0.447-1-1s0.447-1 1-1 1 0.447 1 1-0.448 1-1 1zM24.514 11.959c-0.553 0-1-0.447-1-1s0.447-1 1-1 1 0.447 1 1-0.448 1-1 1zM27.514 14.959c-0.553 0-1-0.447-1-1s0.447-1 1-1 1 0.447 1 1-0.448 1-1 1zM9.513 10.459c-1.38 0-2.5 1.119-2.5 2.5s1.12 2.5 2.5 2.5c1.381 0 2.5-1.119 2.5-2.5s-1.119-2.5-2.5-2.5z"></path>
</symbol>
<symbol id="icon-comments" viewBox="0 0 34 32">
<title>comments</title>
<path d="M25.132 13.165c0-5.165-5.627-9.352-12.566-9.352s-12.566 4.187-12.566 9.352c0 3.104 2.032 5.854 5.16 7.555-0.009 0.027-2.492 4.545-2.492 4.545s7.582-2.892 7.603-2.904c0.744 0.103 1.511 0.155 2.295 0.155 6.939 0 12.566-4.187 12.566-9.351zM34.385 16.087c0-5.164-5.297-9.314-11.031-9.351 8.22 8.188-1.461 16.912-9.351 16.912 0 0 0.877 1.79 7.816 1.79 0.783 0 1.551-0.054 2.295-0.156 0.021 0.014 7.604 2.904 7.604 2.904s-2.484-4.517-2.492-4.544c3.127-1.701 5.159-4.452 5.159-7.555z"></path>
</symbol>
<symbol id="icon-store-front" viewBox="0 0 20 20">
<title>store-front</title>
<path d="M18 9.87v10.13h-16v-10.13c0.301 0.076 0.646 0.12 1.001 0.12 0.732 0 1.42-0.185 2.022-0.511l-0.022 0.011v4.51h10v-4.5c0.576 0.31 1.261 0.492 1.988 0.492 0.359 0 0.708-0.045 1.042-0.128l-0.029 0.006zM3 0h4l-0.67 6.030c-0.231 1.663-1.627 2.935-3.326 2.97l-0.004 0c-1.66 0-2.58-1.27-2.050-2.85l2.050-6.15zM8 0h4l0.7 6.3c0.17 1.5-0.91 2.7-2.42 2.7h-0.56c-0.018 0.001-0.040 0.001-0.062 0.001-1.314 0-2.38-1.066-2.38-2.38 0-0.113 0.008-0.224 0.023-0.333l-0.001 0.013 0.7-6.3zM13 0h4l2.050 6.15c0.53 1.58-0.4 2.85-2.050 2.85-1.705-0.031-3.103-1.305-3.328-2.952l-0.002-0.018-0.67-6.030z"></path>
</symbol>
<symbol id="icon-bowl" viewBox="0 0 20 20">
<title>bowl</title>
<path d="M16.949 7.472c-2.176 2.902-4.095 3.002-7.046 3.152h-0.101c-3.591-0.002-6.138-1.336-6.138-1.832-0.002-0.471 2.298-1.697 5.605-1.819l0.59-1.473c-0.019 0-0.037-0.002-0.057-0.002-4.908 0-7.791 1.562-7.791 3.051v2c0 0.918 0.582 8.949 7.582 8.949s8-8.031 8-8.949v-2c0-0.391-0.201-0.787-0.584-1.158l-0.060 0.081zM17.589 2.702c-0.441-0.33-1.069-0.242-1.399 0.201l-3.608 4.809 2.336-5.838c0.206-0.512-0.044-1.094-0.557-1.301-0.508-0.205-1.096 0.043-1.3 0.559l-3.259 8.142c2.882-0.147 4.277-0.227 6.067-2.611 1.789-2.387 1.919-2.561 1.919-2.561 0.332-0.441 0.243-1.068-0.199-1.4z"></path>
</symbol>
<symbol id="icon-chevron-thin-right" viewBox="0 0 20 20">
<title>chevron-thin-right</title>
<path d="M13.25 10l-7.141-7.42c-0.268-0.27-0.268-0.707 0-0.979 0.268-0.27 0.701-0.27 0.969 0l7.83 7.908c0.268 0.271 0.268 0.709 0 0.979l-7.83 7.908c-0.268 0.271-0.701 0.27-0.969 0s-0.268-0.707 0-0.979l7.141-7.417z"></path>
</symbol>
<symbol id="icon-home" viewBox="0 0 32 32">
<title>home</title>
<path d="M32 19l-6-6v-9h-4v5l-6-6-16 16v1h4v10h10v-6h4v6h10v-10h4z"></path>
</symbol>
<symbol id="icon-location" viewBox="0 0 32 32">
<title>location</title>
<path d="M16 0c-5.523 0-10 4.477-10 10 0 10 10 22 10 22s10-12 10-22c0-5.523-4.477-10-10-10zM16 16c-3.314 0-6-2.686-6-6s2.686-6 6-6 6 2.686 6 6-2.686 6-6 6z"></path>
</symbol>
<symbol id="icon-search" viewBox="0 0 32 32">
<title>search</title>
<path d="M31.008 27.231l-7.58-6.447c-0.784-0.705-1.622-1.029-2.299-0.998 1.789-2.096 2.87-4.815 2.87-7.787 0-6.627-5.373-12-12-12s-12 5.373-12 12 5.373 12 12 12c2.972 0 5.691-1.081 7.787-2.87-0.031 0.677 0.293 1.515 0.998 2.299l6.447 7.58c1.104 1.226 2.907 1.33 4.007 0.23s0.997-2.903-0.23-4.007zM12 20c-4.418 0-8-3.582-8-8s3.582-8 8-8 8 3.582 8 8-3.582 8-8 8z"></path>
</symbol>
<symbol id="icon-bookmark" viewBox="0 0 32 32">
<title>bookmark</title>
<path d="M6 0v32l10-10 10 10v-32z"></path>
</symbol>
</defs>
</svg>
